<?xml version="1.0" encoding="UTF-8" standalone="no"?>
<!-- Created with Inkscape (http://www.inkscape.org/) -->

<svg
   version="1.1"
   id="svg1"
   width="3840"
   height="2160"
   viewBox="0 0 3840 2160"
   sodipodi:docname="secureblue-bw.svg"
   inkscape:version="1.4.2 (ebf0e940d0, 2025-05-08)"
   inkscape:export-filename="secureblue-black.png"
   inkscape:export-xdpi="96"
   inkscape:export-ydpi="96"
   xml:space="preserve"
   xmlns:inkscape="http://www.inkscape.org/namespaces/inkscape"
   xmlns:sodipodi="http://sodipodi.sourceforge.net/DTD/sodipodi-0.dtd"
   xmlns:xlink="http://www.w3.org/1999/xlink"
   xmlns="http://www.w3.org/2000/svg"
   xmlns:svg="http://www.w3.org/2000/svg"><defs
     id="defs1"><filter
       style="color-interpolation-filters:sRGB"
       inkscape:label="Drop Shadow"
       id="filter40"
       x="-1.383649"
       y="-1.0593563"
       width="3.7877062"
       height="3.14215"><feFlood
         result="flood"
         in="SourceGraphic"
         flood-opacity="0.75"
         flood-color="rgb(64,0,128)"
         id="feFlood39" /><feGaussianBlur
         result="blur"
         in="SourceGraphic"
         stdDeviation="112.998"
         id="feGaussianBlur39" /><feOffset
         result="offset"
         in="blur"
         dx="4.000000"
         dy="6.000000"
         id="feOffset39" /><feComposite
         result="comp1"
         operator="in"
         in="flood"
         in2="offset"
         id="feComposite39" /><feComposite
         result="comp2"
         operator="over"
         in="SourceGraphic"
         in2="comp1"
         id="feComposite40" /></filter><linearGradient
       inkscape:collect="always"
       xlink:href="#linearGradient10"
       id="linearGradient6"
       x1="367.99997"
       y1="62.010296"
       x2="143.99998"
       y2="449.98965"
       gradientUnits="userSpaceOnUse"
       gradientTransform="matrix(1.0364945,0,0,1.0362186,1618.6573,810.76876)" /><linearGradient
       id="linearGradient10"
       x1="119.00664"
       y1="9.9706745"
       x2="9.8707094"
       y2="118.384"
       gradientUnits="userSpaceOnUse"
       gradientTransform="matrix(1.1666666,0,0,1.1666666,-10.666666,-10.666666)"
       spreadMethod="pad"><stop
         stop-color="#76C9F6"
         id="stop6"
         offset="0"
         style="stop-color:#ffffff;stop-opacity:1;" /><stop
         stop-color="#76C9F6"
         id="stop7"
         offset="0.25"
         style="stop-color:#b8b8b8;stop-opacity:1;" /><stop
         stop-color="#76C9F6"
         id="stop8"
         offset="0.5"
         style="stop-color:#606060;stop-opacity:1;" /><stop
         stop-color="#76C9F6"
         id="stop9"
         offset="0.75"
         style="stop-color:#2e2e2e;stop-opacity:1;" /><stop
         offset="1"
         stop-color="#715680"
         id="stop10"
         style="stop-color:#000000;stop-opacity:1;" /></linearGradient><filter
       style="color-interpolation-filters:sRGB"
       inkscape:label="Drop Shadow"
       id="filter40-7"
       x="-0.024489796"
       y="-0.01875"
       width="1.0693878"
       height="1.0609375"><feFlood
         result="flood"
         in="SourceGraphic"
         flood-opacity="0.75"
         flood-color="rgb(64,0,128)"
         id="feFlood39-5" /><feGaussianBlur
         result="blur"
         in="SourceGraphic"
         stdDeviation="2.000000"
         id="feGaussianBlur39-3" /><feOffset
         result="offset"
         in="blur"
         dx="4.000000"
         dy="6.000000"
         id="feOffset39-5" /><feComposite
         result="comp1"
         operator="in"
         in="flood"
         in2="offset"
         id="feComposite39-6" /><feComposite
         result="comp2"
         operator="over"
         in="SourceGraphic"
         in2="comp1"
         id="feComposite40-2" /></filter><linearGradient
       id="linearGradient10-1"
       x1="119.00664"
       y1="9.9706745"
       x2="9.8707094"
       y2="118.384"
       gradientUnits="userSpaceOnUse"
       gradientTransform="matrix(1.1666666,0,0,1.1666666,-10.666666,-10.666666)"
       spreadMethod="pad"><stop
         stop-color="#76C9F6"
         id="stop6-2"
         offset="0"
         style="stop-color:#3dc7f5;stop-opacity:1;" /><stop
         stop-color="#76C9F6"
         id="stop7-7"
         offset="0.25"
         style="stop-color:#0da6f2;stop-opacity:1;" /><stop
         stop-color="#76C9F6"
         id="stop8-0"
         offset="0.5"
         style="stop-color:#5f82c9;stop-opacity:1;" /><stop
         stop-color="#76C9F6"
         id="stop9-9"
         offset="0.75"
         style="stop-color:#7259a6;stop-opacity:1;" /><stop
         offset="1"
         stop-color="#715680"
         id="stop10-3"
         style="stop-color:#744e74;stop-opacity:1;" /></linearGradient></defs><sodipodi:namedview
     id="namedview1"
     pagecolor="#ffffff"
     bordercolor="#000000"
     borderopacity="0.25"
     inkscape:showpageshadow="2"
     inkscape:pageopacity="0.0"
     inkscape:pagecheckerboard="0"
     inkscape:deskcolor="#d1d1d1"
     showgrid="false"
     inkscape:zoom="0.25"
     inkscape:cx="1130"
     inkscape:cy="1266"
     inkscape:window-width="1704"
     inkscape:window-height="996"
     inkscape:window-x="0"
     inkscape:window-y="0"
     inkscape:window-maximized="1"
     inkscape:current-layer="layer1"><inkscape:page
       x="0"
       y="0"
       width="3840"
       height="2160"
       id="page2"
       margin="0"
       bleed="0" /></sodipodi:namedview><g
     inkscape:groupmode="layer"
     id="layer1"
     inkscape:label="Layer 1"
     transform="translate(36,3.959303)"><rect
       style="opacity:1;fill:#000000;fill-opacity:1;stroke:#000000;stroke-width:4.93621;stroke-dasharray:none;stroke-opacity:1"
       id="rect3"
       width="3835.0637"
       height="2155.0637"
       x="-33.533939"
       y="-1.4804549" /><rect
       style="fill:url(#linearGradient6);fill-opacity:1;stroke-width:1.17391;stroke-linecap:round;stroke-linejoin:round"
       id="rect4"
       width="464.34952"
       height="464.22595"
       x="1651.8252"
       y="843.92773"
       ry="232.11298"
       inkscape:label="Background gradient" /><path
       d="m 184.50002,383.99994 c -6.73728,0 -12.50712,-2.38932 -17.30912,-7.168 -4.802,-4.77864 -7.19881,-10.51631 -7.19088,-17.21292 V 237.71429 c 0,-6.70501 2.40101,-12.44637 7.203,-17.22505 4.802,-4.77865 10.56768,-7.16426 17.297,-7.15592 h 12.25001 V 188.9524 c 0,-16.86372 5.97379,-31.24014 17.92183,-43.1297 11.9476,-11.89 26.39048,-17.83059 43.32816,-17.82269 16.94556,0 31.39264,5.94478 43.34023,17.83478 11.94808,11.88954 17.9177,26.26222 17.90972,43.11761 v 24.38092 h 12.25001 c 6.73727,0 12.50712,2.38935 17.30912,7.16798 4.802,4.77869 7.19881,10.51635 7.19088,17.21299 v 121.90473 c 0,6.70451 -2.40101,12.44636 -7.20301,17.22503 -4.802,4.77864 -10.56768,7.16378 -17.29699,7.15593 z m 73.5,-60.95235 c 6.73724,0 12.50711,-2.38932 17.30911,-7.168 4.80201,-4.77869 7.19881,-10.51631 7.19086,-17.21297 0,-6.70498 -2.40101,-12.44632 -7.20301,-17.22499 -4.802,-4.77869 -10.56765,-7.1643 -17.29696,-7.15593 -6.73777,0 -12.50715,2.38933 -17.30916,7.16801 -4.802,4.77867 -7.1988,10.5163 -7.19085,17.21291 0,6.70454 2.40101,12.44636 7.20301,17.22505 4.802,4.77867 10.56763,7.1638 17.297,7.15592 z m -36.75,-109.71427 h 73.49995 V 188.9524 c 0,-10.15874 -3.57279,-18.79377 -10.71883,-25.90466 -7.1456,-7.11136 -15.8228,-10.66679 -26.03112,-10.66679 -10.20836,0 -18.88556,3.55543 -26.03117,10.66679 -7.14603,7.11089 -10.71883,15.74592 -10.71883,25.90466 z"
       fill="#f4f5ff"
       id="path2"
       style="display:inline;opacity:1;mix-blend-mode:normal;fill:#ffffff;fill-opacity:1;stroke:none;stroke-width:0.994777;stroke-dasharray:none;stroke-opacity:1"
       inkscape:label="Padlock"
       transform="matrix(1.0364944,0,0,1.0362185,1614.5115,807.66014)" /></g></svg>
